<?xml version="1.0" ?><!DOCTYPE svg  PUBLIC '-//W3C//DTD SVG 1.1//EN'  'http://www.w3.org/Graphics/SVG/1.1/DTD/svg11.dtd'><svg enable-background="new 0 0 512 512" height="512px" id="Layer_4" version="1.1" viewBox="0 0 512 512" width="512px" xml:space="preserve" xmlns="http://www.w3.org/2000/svg" xmlns:xlink="http://www.w3.org/1999/xlink"><g><path d="M468.995,17c13.75,0,25,11.25,25,25v426.995c0,13.75-11.25,25-25,25H42c-13.75,0-25-11.25-25-25V42c0-13.75,11.25-25,25-25   H468.995 M468.995,37H42c-2.71,0-5,2.29-5,5v426.995c0,2.71,2.29,5,5,5h426.995c2.71,0,5-2.29,5-5V42   C473.995,39.29,471.705,37,468.995,37z"/></g><polygon points="446.58,134 386.491,134 386.491,79.951 360.033,79.951 360.033,134 302.945,134 302.945,161.575 360.033,161.575   360.033,215.397 386.491,215.397 386.491,161.575 446.58,161.575 "/><path d="M288.006,52.563H141.705c-52.773,0-94.336,12.345-124.704,37.01v188.698c19.39,13.344,42.728,20.021,70.019,20.021h22.727  c-4.736,11.152-7.102,20.205-7.102,27.175c0,13.483,7.102,29.285,21.305,47.396C80.14,375.917,44.49,382.383,17,392.26v34.821  c9.888-9.412,23.276-17.073,40.192-22.973c22.248-7.577,47.105-11.362,74.569-11.362c7.102,0,12.539,0.231,16.335,0.709  c29.829,21.308,49.469,37.165,58.947,47.583c12.304,13.727,18.463,29.118,18.463,46.162c0,2.315-0.115,4.572-0.297,6.795h42.457  c3.61-10.968,5.424-22.526,5.424-34.681c0-22.281-5.928-41.955-17.755-59.023c-8.055-11.852-22.016-25.367-41.901-40.535  l-25.566-19.907c-12.318-9.479-18.466-19.677-18.466-30.583c0-9.954,6.625-21.573,19.885-34.855  c19.41-15.158,33.137-28.442,41.19-39.827c12.309-17.533,18.467-37.918,18.467-61.155c0-36.031-16.813-66.033-50.425-94.008h44.032  L288.006,52.563z M168.691,258.519c-13.26,13.261-29.361,19.886-48.292,19.886c-27.942,0-50.425-15.147-67.469-45.452  c-14.203-25.09-21.305-52.077-21.305-80.963c0-17.987,3.55-32.901,10.653-44.741c11.829-20.83,30.061-28.249,54.684-28.249  c26.987,0,49.238,12.391,66.758,43.162c15.148,26.522,22.727,54.686,22.727,84.514C186.448,229.401,180.523,246.69,168.691,258.519z  "/></svg>